<svg xmlns="http://www.w3.org/2000/svg" viewBox="0 0 100 100"><g fill="none" fill-rule="evenodd"><path fill="#F9F4E3" d="M9 18.5h83v62H9z"/><path d="M31.7948027 71c2.4750235 0 4.7634382-.3081368 6.8652439-.9244105s3.9089657-1.471105 5.4214801-2.5644938c1.5125144-1.0933888 2.7009186-2.3955155 3.5652125-3.90638.864294-1.5108646 1.2964409-3.1608877 1.2964409-4.9500694 0-2.0674988-.6187559-3.8964401-1.8562676-5.4868238-1.2375118-1.5903838-2.9169921-2.8030513-5.0384408-3.6380028 1.80716-1.0337494 3.2214592-2.3955155 4.2428975-4.0852982 1.0214383-1.6897827 1.5321574-3.5485437 1.5321574-5.5762829 0-1.7494221-.3928609-3.3596857-1.1785826-4.8307906-.7857218-1.471105-1.8660892-2.7235321-3.2411023-3.7572816-1.3750131-1.0337494-3.0446718-1.8388811-5.0089762-2.4153952C36.4305611 28.2882571 34.2894693 28 31.9715901 28c-3.1428871 0-6.207202.6460934-9.1929447 1.9382802-2.9857427 1.2921867-5.4804092 3.0714285-7.4839997 5.3377253l6.4822045 5.9042996c1.7285879-1.7891817 3.3098529-3.0316689 4.7437951-3.7274618 1.4339423-.6957929 3.1330656-1.0436893 5.09737-1.0436893 1.9250183 0 3.5062833.4274156 4.7437951 1.2822468 1.2375118.8548313 1.8562677 1.95816 1.8562677 3.3099862 0 1.5108645-.6285774 2.7533518-1.8857323 3.7274618-1.2571548.9741101-2.8678844 1.4611651-4.8321888 1.4611651h-2.8875275v7.6934812h3.8893228c2.1214487 0 3.7812859.3578364 4.9795116 1.0735091 1.1982257.7156726 1.7973386 1.6897827 1.7973386 2.9223301 0 1.4711049-.6973281 2.6440129-2.0919842 3.518724-1.3946562.874711-3.2312808 1.3120665-5.5098739 1.3120665-2.239307 0-4.1152177-.3180767-5.6277321-.9542302-1.5125144-.6361535-3.0544934-1.7891817-4.6259369-3.4590846L15 64.260749c1.9250183 2.1072584 4.3705773 3.7572815 7.336677 4.9500693C25.3027766 70.4036061 28.4554852 71 31.7948027 71zm36.4889186 0c2.4750236 0 4.7634382-.3081368 6.8652439-.9244105s3.9089658-1.471105 5.4214802-2.5644938c1.5125144-1.0933888 2.7009185-2.3955155 3.5652125-3.90638.8642939-1.5108646 1.2964409-3.1608877 1.2964409-4.9500694 0-2.0674988-.6187559-3.8964401-1.8562677-5.4868238-1.2375118-1.5903838-2.916992-2.8030513-5.0384408-3.6380028 1.8071601-1.0337494 3.2214592-2.3955155 4.2428975-4.0852982 1.0214383-1.6897827 1.5321575-3.5485437 1.5321575-5.5762829 0-1.7494221-.3928609-3.3596857-1.1785827-4.8307906-.7857218-1.471105-1.8660892-2.7235321-3.2411023-3.7572816-1.375013-1.0337494-3.0446718-1.8388811-5.0089762-2.4153952C72.9194797 28.2882571 70.7783879 28 68.4605087 28c-3.142887 0-6.2072019.6460934-9.1929446 1.9382802-2.9857427 1.2921867-5.4804093 3.0714285-7.4839998 5.3377253l6.4822045 5.9042996c1.7285879-1.7891817 3.309853-3.0316689 4.7437952-3.7274618 1.4339422-.6957929 3.1330655-1.0436893 5.0973699-1.0436893 1.9250183 0 3.5062834.4274156 4.7437951 1.2822468 1.2375118.8548313 1.8562677 1.95816 1.8562677 3.3099862 0 1.5108645-.6285774 2.7533518-1.8857322 3.7274618-1.2571548.9741101-2.8678845 1.4611651-4.8321889 1.4611651h-2.8875274v7.6934812h3.8893227c2.1214487 0 3.781286.3578364 4.9795117 1.0735091 1.1982256.7156726 1.7973385 1.6897827 1.7973385 2.9223301 0 1.4711049-.6973281 2.6440129-2.0919842 3.518724-1.3946561.874711-3.2312807 1.3120665-5.5098739 1.3120665-2.239307 0-4.1152177-.3180767-5.6277321-.9542302-1.5125144-.6361535-3.0544933-1.7891817-4.6259369-3.4590846l-6.4232754 5.963939c1.9250184 2.1072584 4.3705773 3.7572815 7.336677 4.9500693C61.7916952 70.4036061 64.9444038 71 68.2837213 71z" fill="#513AA6" fill-rule="nonzero"/></g></svg>